{"title":"Nurse.Betty.2000.DVDRip.XviD-oNE","uid":6999642,"size":731907199,"categoryP":"video","categoryS":"movies","magnet":"?xt=urn:btih:22ede323e294ebc762484c106ec661bd1637c189&amp;dn=Nurse.Betty.2000.DVDRip.XviD-oNE&amp;tr=udp%3A%2F%2Ftracker.openbittorrent.com%3A80&amp;tr=udp%3A%2F%2Fopen.demonii.com%3A1337&amp;tr=udp%3A%2F%2Ftracker.coppersurfer.tk%3A6969&amp;tr=udp%3A%2F%2Fexodus.desync.com%3A6969","seeders":9,"leechers":0,"uploader":"TvTeam","files":4,"time":1328009369,"description":". \n &lt;a href=&quot;\nhttp://www.torrenting.com&quot; rel=&quot;nofollow&quot; target=&quot;_NEW&quot;&gt;\nhttp://www.torrenting.com&lt;/a&gt;          :     Once &amp; For all ;)\n\n\n               www . Torrenting . Com \n\n(((((((((((((= Enjoy No RAR releases =))))))))))))))))))))\n\n\n...................................NFO:....................................\n\n.General\nComplete name                    : F:\\Video\\Nurse.Bety.2000.DVDRip.XviD-oNE\\Nurse.Betty.avi\nFormat                           : AVI\nFormat/Info                      : Audio Video Interleave\nFile size                        : 698 MiB\nDuration                         : 1h 50mn\nOverall bit rate                 : 887 Kbps\nWriting application              : Nandub v1.0rc2\nWriting library                  : Nandub build 1852/release\n\nVideo\nID                               : 0\nFormat                           : MPEG-4 Visual\nFormat settings, BVOP            : Yes\nFormat settings, QPel            : Yes\nFormat settings, GMC             : 2 warppoints\nFormat settings, Matrix          : Default (H.263)\nMuxing mode                      : Packed bitstream\nCodec ID                         : DX50\nCodec ID/Hint                    : DivX 5\nDuration                         : 1h 50mn\nBit rate                         : 780 Kbps\nWidth                            : 640 pixels\nHeight                           : 272 pixels\nDisplay aspect ratio             : 2.35:1\nFrame rate                       : 23.976 fps\nResolution                       : 24 bits\nScan type                        : Progressive\nBits/(Pixel*Frame)               : 0.187\nStream size                      : 614 MiB (88%)\nWriting library                  : DivX 5.0.2 (UTC 2002-05-16)\n\nAudio\nID                               : 1\nFormat                           : MPEG Audio\nFormat version                   : Version 1\nFormat profile                   : Layer 3\nCodec ID                         : 55\nCodec ID/Hint                    : MP3\nDuration                         : 1h 50mn\nBit rate mode                    : Variable\nBit rate                         : 96.0 Kbps\nChannel(s)                       : 2 channels\nSampling rate                    : 32.0 KHz\nResolution                       : 16 bits\nStream size                      : 75.8 MiB (11%)\nAlignment                        : Aligned on interleaves\nInterleave, duration             : 36 ms (0.86 video frame)\nInterleave, preload duration     : 272 ms\nWriting library                  : LAME3.92 \nEncoding settings                : -m j -V 0 -q 2 -lowpass 12.3 --abr 96","torrent":{"xt":"urn:btih:22ede323e294ebc762484c106ec661bd1637c189","amp;dn":"Nurse.Betty.2000.DVDRip.XviD-oNE","amp;tr":["udp%3A%2F%2Ftracker.openbittorrent.com%3A80","udp%3A%2F%2Fopen.demonii.com%3A1337","udp%3A%2F%2Ftracker.coppersurfer.tk%3A6969","udp%3A%2F%2Fexodus.desync.com%3A6969"],"infoHash":"22ede323e294ebc762484c106ec661bd1637c189","infoHashBuffer":{"type":"Buffer","data":[34,237,227,35,226,148,235,199,98,72,76,16,110,198,97,189,22,55,193,137]},"announce":[],"urlList":[]}}